<mxfile host="app.diagrams.net" modified="2022-12-27T09:45:12.452Z" agent="5.0 (Macintosh; Intel Mac OS X 10_15_7) AppleWebKit/537.36 (KHTML, like Gecko) Chrome/108.0.0.0 Safari/537.36" version="20.6.2" etag="iS_vLYkez9mi3hlfoE5V" type="github">
  <diagram id="HuWXRWpaZqcLKKS8uPZ8" name="第 1 页">
    <mxGraphModel dx="1238" dy="1921" grid="1" gridSize="10" guides="1" tooltips="1" connect="1" arrows="1" fold="1" page="1" pageScale="1" pageWidth="827" pageHeight="1169" math="0" shadow="0">
      <root>
        <mxCell id="0" />
        <mxCell id="1" parent="0" />
        <mxCell id="9CGJQdGs0UYNSLArpZwX-1" value="创建任务" style="rounded=0;whiteSpace=wrap;html=1;" vertex="1" parent="1">
          <mxGeometry x="170" y="160" width="180" height="60" as="geometry" />
        </mxCell>
        <mxCell id="9CGJQdGs0UYNSLArpZwX-2" value="元数据登记" style="rounded=0;whiteSpace=wrap;html=1;" vertex="1" parent="1">
          <mxGeometry x="170" y="10" width="180" height="60" as="geometry" />
        </mxCell>
        <mxCell id="9CGJQdGs0UYNSLArpZwX-3" value="up_serving_feature" style="shape=cylinder3;whiteSpace=wrap;html=1;boundedLbl=1;backgroundOutline=1;size=15;fillColor=#eeeeee;strokeColor=#36393d;" vertex="1" parent="1">
          <mxGeometry x="570" y="-10" width="110" height="50" as="geometry" />
        </mxCell>
        <mxCell id="9CGJQdGs0UYNSLArpZwX-4" value="up_feature" style="shape=cylinder3;whiteSpace=wrap;html=1;boundedLbl=1;backgroundOutline=1;size=15;fillColor=#eeeeee;strokeColor=#36393d;" vertex="1" parent="1">
          <mxGeometry x="570" y="60" width="110" height="50" as="geometry" />
        </mxCell>
        <mxCell id="9CGJQdGs0UYNSLArpZwX-5" value="" style="endArrow=classic;html=1;rounded=0;" edge="1" parent="1">
          <mxGeometry width="50" height="50" relative="1" as="geometry">
            <mxPoint x="770" y="-10" as="sourcePoint" />
            <mxPoint x="850" y="-10" as="targetPoint" />
          </mxGeometry>
        </mxCell>
        <mxCell id="9CGJQdGs0UYNSLArpZwX-6" value="" style="endArrow=classic;html=1;rounded=0;dashed=1;" edge="1" parent="1">
          <mxGeometry width="50" height="50" relative="1" as="geometry">
            <mxPoint x="770" y="20" as="sourcePoint" />
            <mxPoint x="850" y="20" as="targetPoint" />
          </mxGeometry>
        </mxCell>
        <mxCell id="9CGJQdGs0UYNSLArpZwX-7" value="数据流" style="text;html=1;strokeColor=none;fillColor=none;align=center;verticalAlign=middle;whiteSpace=wrap;rounded=0;" vertex="1" parent="1">
          <mxGeometry x="880" y="-30" width="60" height="30" as="geometry" />
        </mxCell>
        <mxCell id="9CGJQdGs0UYNSLArpZwX-8" value="控制流" style="text;html=1;strokeColor=none;fillColor=none;align=center;verticalAlign=middle;whiteSpace=wrap;rounded=0;" vertex="1" parent="1">
          <mxGeometry x="880" y="10" width="60" height="30" as="geometry" />
        </mxCell>
        <mxCell id="9CGJQdGs0UYNSLArpZwX-10" value="Redis导入" style="rounded=0;whiteSpace=wrap;html=1;" vertex="1" parent="1">
          <mxGeometry x="170" y="370" width="80" height="130" as="geometry" />
        </mxCell>
        <mxCell id="9CGJQdGs0UYNSLArpZwX-11" value="Union Merge" style="rounded=0;whiteSpace=wrap;html=1;" vertex="1" parent="1">
          <mxGeometry x="170" y="300" width="180" height="60" as="geometry" />
        </mxCell>
        <mxCell id="9CGJQdGs0UYNSLArpZwX-12" value="Yotta构建" style="rounded=0;whiteSpace=wrap;html=1;" vertex="1" parent="1">
          <mxGeometry x="270" y="370" width="80" height="60" as="geometry" />
        </mxCell>
        <mxCell id="9CGJQdGs0UYNSLArpZwX-13" value="Yotta导入" style="rounded=0;whiteSpace=wrap;html=1;" vertex="1" parent="1">
          <mxGeometry x="270" y="440" width="80" height="60" as="geometry" />
        </mxCell>
        <mxCell id="9CGJQdGs0UYNSLArpZwX-14" value="" style="shape=flexArrow;endArrow=classic;html=1;rounded=0;" edge="1" parent="1">
          <mxGeometry width="50" height="50" relative="1" as="geometry">
            <mxPoint x="259.5" y="80" as="sourcePoint" />
            <mxPoint x="259.5" y="140" as="targetPoint" />
          </mxGeometry>
        </mxCell>
        <mxCell id="9CGJQdGs0UYNSLArpZwX-15" value="" style="shape=flexArrow;endArrow=classic;html=1;rounded=0;" edge="1" parent="1">
          <mxGeometry width="50" height="50" relative="1" as="geometry">
            <mxPoint x="259.5" y="230" as="sourcePoint" />
            <mxPoint x="259.5" y="290" as="targetPoint" />
          </mxGeometry>
        </mxCell>
        <mxCell id="9CGJQdGs0UYNSLArpZwX-16" value="&lt;font style=&quot;font-size: 18px;&quot;&gt;预处理&lt;/font&gt;" style="text;html=1;strokeColor=none;fillColor=none;align=center;verticalAlign=middle;whiteSpace=wrap;rounded=0;fontColor=#FF3333;" vertex="1" parent="1">
          <mxGeometry x="10" y="80" width="110" height="60" as="geometry" />
        </mxCell>
        <mxCell id="9CGJQdGs0UYNSLArpZwX-17" value="&lt;span style=&quot;font-size: 18px;&quot;&gt;导入任务&lt;/span&gt;" style="text;html=1;strokeColor=none;fillColor=none;align=center;verticalAlign=middle;whiteSpace=wrap;rounded=0;fontColor=#FF3333;" vertex="1" parent="1">
          <mxGeometry x="10" y="300" width="110" height="430" as="geometry" />
        </mxCell>
        <mxCell id="9CGJQdGs0UYNSLArpZwX-18" value="画像监控指标" style="rounded=0;whiteSpace=wrap;html=1;" vertex="1" parent="1">
          <mxGeometry x="170" y="510" width="180" height="50" as="geometry" />
        </mxCell>
        <mxCell id="9CGJQdGs0UYNSLArpZwX-19" value="任务完成" style="rounded=0;whiteSpace=wrap;html=1;" vertex="1" parent="1">
          <mxGeometry x="170" y="670" width="180" height="60" as="geometry" />
        </mxCell>
        <mxCell id="9CGJQdGs0UYNSLArpZwX-20" value="" style="shape=flexArrow;endArrow=classic;html=1;rounded=0;" edge="1" parent="1">
          <mxGeometry width="50" height="50" relative="1" as="geometry">
            <mxPoint x="259.5" y="590" as="sourcePoint" />
            <mxPoint x="259.5" y="650" as="targetPoint" />
          </mxGeometry>
        </mxCell>
        <mxCell id="9CGJQdGs0UYNSLArpZwX-23" value="" style="endArrow=classic;html=1;rounded=0;dashed=1;exitX=1;exitY=0.5;exitDx=0;exitDy=0;entryX=0;entryY=0.5;entryDx=0;entryDy=0;entryPerimeter=0;" edge="1" parent="1" source="9CGJQdGs0UYNSLArpZwX-2" target="9CGJQdGs0UYNSLArpZwX-3">
          <mxGeometry width="50" height="50" relative="1" as="geometry">
            <mxPoint x="780" y="30" as="sourcePoint" />
            <mxPoint x="860" y="30" as="targetPoint" />
          </mxGeometry>
        </mxCell>
        <mxCell id="9CGJQdGs0UYNSLArpZwX-25" value="create" style="edgeLabel;html=1;align=center;verticalAlign=middle;resizable=0;points=[];fontSize=14;fontColor=#000000;" vertex="1" connectable="0" parent="9CGJQdGs0UYNSLArpZwX-23">
          <mxGeometry x="0.161" y="-3" relative="1" as="geometry">
            <mxPoint x="-1" as="offset" />
          </mxGeometry>
        </mxCell>
        <mxCell id="9CGJQdGs0UYNSLArpZwX-24" value="" style="endArrow=classic;html=1;rounded=0;dashed=1;exitX=1;exitY=0.5;exitDx=0;exitDy=0;entryX=0;entryY=0.5;entryDx=0;entryDy=0;entryPerimeter=0;" edge="1" parent="1" source="9CGJQdGs0UYNSLArpZwX-2" target="9CGJQdGs0UYNSLArpZwX-4">
          <mxGeometry width="50" height="50" relative="1" as="geometry">
            <mxPoint x="360" y="50" as="sourcePoint" />
            <mxPoint x="580" y="25" as="targetPoint" />
          </mxGeometry>
        </mxCell>
        <mxCell id="9CGJQdGs0UYNSLArpZwX-26" value="create" style="edgeLabel;html=1;align=center;verticalAlign=middle;resizable=0;points=[];fontSize=14;fontColor=#000000;" vertex="1" connectable="0" parent="9CGJQdGs0UYNSLArpZwX-24">
          <mxGeometry x="0.1022" y="-1" relative="1" as="geometry">
            <mxPoint as="offset" />
          </mxGeometry>
        </mxCell>
        <mxCell id="9CGJQdGs0UYNSLArpZwX-27" value="tx_kv_feature_task" style="shape=cylinder3;whiteSpace=wrap;html=1;boundedLbl=1;backgroundOutline=1;size=15;fillColor=#eeeeee;strokeColor=#36393d;" vertex="1" parent="1">
          <mxGeometry x="570" y="165" width="110" height="50" as="geometry" />
        </mxCell>
        <mxCell id="9CGJQdGs0UYNSLArpZwX-28" value="" style="endArrow=classic;html=1;rounded=0;dashed=1;exitX=1;exitY=0.5;exitDx=0;exitDy=0;entryX=0;entryY=0;entryDx=0;entryDy=30;entryPerimeter=0;" edge="1" parent="1" source="9CGJQdGs0UYNSLArpZwX-1" target="9CGJQdGs0UYNSLArpZwX-27">
          <mxGeometry width="50" height="50" relative="1" as="geometry">
            <mxPoint x="360" y="50" as="sourcePoint" />
            <mxPoint x="580" y="95" as="targetPoint" />
          </mxGeometry>
        </mxCell>
        <mxCell id="9CGJQdGs0UYNSLArpZwX-29" value="create" style="edgeLabel;html=1;align=center;verticalAlign=middle;resizable=0;points=[];fontSize=14;fontColor=#000000;" vertex="1" connectable="0" parent="9CGJQdGs0UYNSLArpZwX-28">
          <mxGeometry x="0.1022" y="-1" relative="1" as="geometry">
            <mxPoint as="offset" />
          </mxGeometry>
        </mxCell>
        <mxCell id="9CGJQdGs0UYNSLArpZwX-30" value="tx_kv_feature_task_instance" style="shape=cylinder3;whiteSpace=wrap;html=1;boundedLbl=1;backgroundOutline=1;size=15;fillColor=#eeeeee;strokeColor=#36393d;" vertex="1" parent="1">
          <mxGeometry x="570" y="300" width="110" height="50" as="geometry" />
        </mxCell>
        <mxCell id="9CGJQdGs0UYNSLArpZwX-31" value="" style="endArrow=classic;html=1;rounded=0;dashed=1;exitX=1;exitY=0.5;exitDx=0;exitDy=0;entryX=0;entryY=0.5;entryDx=0;entryDy=0;entryPerimeter=0;" edge="1" parent="1" source="9CGJQdGs0UYNSLArpZwX-11" target="9CGJQdGs0UYNSLArpZwX-30">
          <mxGeometry width="50" height="50" relative="1" as="geometry">
            <mxPoint x="360" y="200" as="sourcePoint" />
            <mxPoint x="580" y="205" as="targetPoint" />
          </mxGeometry>
        </mxCell>
        <mxCell id="9CGJQdGs0UYNSLArpZwX-49" value="create" style="edgeLabel;html=1;align=center;verticalAlign=middle;resizable=0;points=[];fontSize=14;fontColor=#000000;" vertex="1" connectable="0" parent="9CGJQdGs0UYNSLArpZwX-31">
          <mxGeometry x="0.0635" y="-1" relative="1" as="geometry">
            <mxPoint as="offset" />
          </mxGeometry>
        </mxCell>
        <mxCell id="9CGJQdGs0UYNSLArpZwX-33" value="" style="endArrow=classic;html=1;rounded=0;dashed=1;exitX=1;exitY=0.75;exitDx=0;exitDy=0;entryX=0;entryY=0.5;entryDx=0;entryDy=0;entryPerimeter=0;" edge="1" parent="1" source="9CGJQdGs0UYNSLArpZwX-12" target="9CGJQdGs0UYNSLArpZwX-30">
          <mxGeometry width="50" height="50" relative="1" as="geometry">
            <mxPoint x="360" y="340" as="sourcePoint" />
            <mxPoint x="580" y="335" as="targetPoint" />
          </mxGeometry>
        </mxCell>
        <mxCell id="9CGJQdGs0UYNSLArpZwX-35" value="" style="endArrow=classic;html=1;rounded=0;dashed=1;exitX=1;exitY=0.5;exitDx=0;exitDy=0;entryX=0;entryY=0.5;entryDx=0;entryDy=0;entryPerimeter=0;" edge="1" parent="1" source="9CGJQdGs0UYNSLArpZwX-13" target="9CGJQdGs0UYNSLArpZwX-30">
          <mxGeometry width="50" height="50" relative="1" as="geometry">
            <mxPoint x="360" y="410" as="sourcePoint" />
            <mxPoint x="590" y="345" as="targetPoint" />
          </mxGeometry>
        </mxCell>
        <mxCell id="9CGJQdGs0UYNSLArpZwX-37" value="" style="endArrow=classic;html=1;rounded=0;dashed=1;exitX=1;exitY=0.25;exitDx=0;exitDy=0;entryX=0;entryY=0;entryDx=0;entryDy=30;entryPerimeter=0;" edge="1" parent="1" source="9CGJQdGs0UYNSLArpZwX-10" target="9CGJQdGs0UYNSLArpZwX-30">
          <mxGeometry width="50" height="50" relative="1" as="geometry">
            <mxPoint x="360" y="410" as="sourcePoint" />
            <mxPoint x="590" y="345" as="targetPoint" />
          </mxGeometry>
        </mxCell>
        <mxCell id="9CGJQdGs0UYNSLArpZwX-40" value="tx_kv_feature_task_metric" style="shape=cylinder3;whiteSpace=wrap;html=1;boundedLbl=1;backgroundOutline=1;size=15;fillColor=#eeeeee;strokeColor=#36393d;" vertex="1" parent="1">
          <mxGeometry x="570" y="375" width="110" height="50" as="geometry" />
        </mxCell>
        <mxCell id="9CGJQdGs0UYNSLArpZwX-41" value="tx_kv_feature_writer_metric" style="shape=cylinder3;whiteSpace=wrap;html=1;boundedLbl=1;backgroundOutline=1;size=15;fillColor=#eeeeee;strokeColor=#36393d;" vertex="1" parent="1">
          <mxGeometry x="570" y="440" width="110" height="50" as="geometry" />
        </mxCell>
        <mxCell id="9CGJQdGs0UYNSLArpZwX-42" value="Redis/Yotta" style="shape=cylinder3;whiteSpace=wrap;html=1;boundedLbl=1;backgroundOutline=1;size=15;fontSize=14;fillColor=#f9f7ed;strokeColor=#36393d;" vertex="1" parent="1">
          <mxGeometry x="590" y="585" width="75" height="80" as="geometry" />
        </mxCell>
        <mxCell id="9CGJQdGs0UYNSLArpZwX-43" value="tx_kv_feature_serving_metric" style="shape=cylinder3;whiteSpace=wrap;html=1;boundedLbl=1;backgroundOutline=1;size=15;fillColor=#eeeeee;strokeColor=#36393d;" vertex="1" parent="1">
          <mxGeometry x="572.5" y="500" width="110" height="50" as="geometry" />
        </mxCell>
        <mxCell id="9CGJQdGs0UYNSLArpZwX-44" value="" style="endArrow=classic;startArrow=classic;html=1;rounded=0;fontSize=14;fontColor=#000000;exitX=0.5;exitY=0;exitDx=0;exitDy=0;exitPerimeter=0;entryX=0.5;entryY=1;entryDx=0;entryDy=0;entryPerimeter=0;" edge="1" parent="1" source="9CGJQdGs0UYNSLArpZwX-30" target="9CGJQdGs0UYNSLArpZwX-27">
          <mxGeometry width="50" height="50" relative="1" as="geometry">
            <mxPoint x="620" y="290" as="sourcePoint" />
            <mxPoint x="670" y="240" as="targetPoint" />
          </mxGeometry>
        </mxCell>
        <mxCell id="9CGJQdGs0UYNSLArpZwX-46" value="" style="endArrow=classic;html=1;rounded=0;dashed=1;exitX=1;exitY=0.5;exitDx=0;exitDy=0;entryX=0;entryY=0;entryDx=0;entryDy=30;entryPerimeter=0;" edge="1" parent="1" source="9CGJQdGs0UYNSLArpZwX-11" target="9CGJQdGs0UYNSLArpZwX-40">
          <mxGeometry width="50" height="50" relative="1" as="geometry">
            <mxPoint x="360" y="340" as="sourcePoint" />
            <mxPoint x="580" y="335" as="targetPoint" />
          </mxGeometry>
        </mxCell>
        <mxCell id="9CGJQdGs0UYNSLArpZwX-50" value="create" style="edgeLabel;html=1;align=center;verticalAlign=middle;resizable=0;points=[];fontSize=14;fontColor=#000000;" vertex="1" connectable="0" parent="9CGJQdGs0UYNSLArpZwX-46">
          <mxGeometry x="0.1456" relative="1" as="geometry">
            <mxPoint as="offset" />
          </mxGeometry>
        </mxCell>
        <mxCell id="9CGJQdGs0UYNSLArpZwX-51" value="" style="endArrow=classic;html=1;rounded=0;exitX=1;exitY=0.5;exitDx=0;exitDy=0;entryX=0;entryY=0.5;entryDx=0;entryDy=0;entryPerimeter=0;" edge="1" parent="1" source="9CGJQdGs0UYNSLArpZwX-13" target="9CGJQdGs0UYNSLArpZwX-42">
          <mxGeometry width="50" height="50" relative="1" as="geometry">
            <mxPoint x="780" as="sourcePoint" />
            <mxPoint x="860" as="targetPoint" />
          </mxGeometry>
        </mxCell>
        <mxCell id="9CGJQdGs0UYNSLArpZwX-52" value="写入" style="edgeLabel;html=1;align=center;verticalAlign=middle;resizable=0;points=[];fontSize=14;fontColor=#000000;" vertex="1" connectable="0" parent="9CGJQdGs0UYNSLArpZwX-51">
          <mxGeometry x="0.0101" y="-3" relative="1" as="geometry">
            <mxPoint as="offset" />
          </mxGeometry>
        </mxCell>
        <mxCell id="9CGJQdGs0UYNSLArpZwX-53" value="" style="endArrow=classic;html=1;rounded=0;exitX=1;exitY=0.75;exitDx=0;exitDy=0;entryX=0;entryY=0.5;entryDx=0;entryDy=0;entryPerimeter=0;" edge="1" parent="1" source="9CGJQdGs0UYNSLArpZwX-10" target="9CGJQdGs0UYNSLArpZwX-42">
          <mxGeometry width="50" height="50" relative="1" as="geometry">
            <mxPoint x="360" y="480" as="sourcePoint" />
            <mxPoint x="600" y="635" as="targetPoint" />
          </mxGeometry>
        </mxCell>
        <mxCell id="9CGJQdGs0UYNSLArpZwX-54" value="写入" style="edgeLabel;html=1;align=center;verticalAlign=middle;resizable=0;points=[];fontSize=14;fontColor=#000000;" vertex="1" connectable="0" parent="9CGJQdGs0UYNSLArpZwX-53">
          <mxGeometry x="0.0101" y="-3" relative="1" as="geometry">
            <mxPoint as="offset" />
          </mxGeometry>
        </mxCell>
        <mxCell id="9CGJQdGs0UYNSLArpZwX-56" value="" style="endArrow=classic;html=1;rounded=0;exitX=0;exitY=0.5;exitDx=0;exitDy=0;entryX=1;entryY=0.5;entryDx=0;entryDy=0;entryPerimeter=0;" edge="1" parent="1" source="9CGJQdGs0UYNSLArpZwX-59" target="9CGJQdGs0UYNSLArpZwX-42">
          <mxGeometry width="50" height="50" relative="1" as="geometry">
            <mxPoint x="770" y="695" as="sourcePoint" />
            <mxPoint x="600" y="635" as="targetPoint" />
          </mxGeometry>
        </mxCell>
        <mxCell id="9CGJQdGs0UYNSLArpZwX-57" value="查询" style="edgeLabel;html=1;align=center;verticalAlign=middle;resizable=0;points=[];fontSize=14;fontColor=#000000;" vertex="1" connectable="0" parent="9CGJQdGs0UYNSLArpZwX-56">
          <mxGeometry x="0.0101" y="-3" relative="1" as="geometry">
            <mxPoint as="offset" />
          </mxGeometry>
        </mxCell>
        <mxCell id="9CGJQdGs0UYNSLArpZwX-58" value="" style="shape=flexArrow;endArrow=classic;html=1;rounded=0;" edge="1" parent="1">
          <mxGeometry width="50" height="50" relative="1" as="geometry">
            <mxPoint x="390" y="700" as="sourcePoint" />
            <mxPoint x="700" y="700" as="targetPoint" />
          </mxGeometry>
        </mxCell>
        <mxCell id="9CGJQdGs0UYNSLArpZwX-59" value="画像SDK" style="rounded=0;whiteSpace=wrap;html=1;" vertex="1" parent="1">
          <mxGeometry x="800" y="670" width="180" height="60" as="geometry" />
        </mxCell>
        <mxCell id="9CGJQdGs0UYNSLArpZwX-60" value="007" style="rounded=0;whiteSpace=wrap;html=1;dashed=1;fillColor=#ffcccc;strokeColor=#36393d;" vertex="1" parent="1">
          <mxGeometry x="827" y="570" width="125" height="50" as="geometry" />
        </mxCell>
        <mxCell id="9CGJQdGs0UYNSLArpZwX-61" value="" style="endArrow=classic;html=1;rounded=0;dashed=1;exitX=0;exitY=0;exitDx=0;exitDy=0;entryX=1;entryY=0;entryDx=0;entryDy=30;entryPerimeter=0;" edge="1" parent="1" source="9CGJQdGs0UYNSLArpZwX-60" target="9CGJQdGs0UYNSLArpZwX-43">
          <mxGeometry width="50" height="50" relative="1" as="geometry">
            <mxPoint x="360" y="480" as="sourcePoint" />
            <mxPoint x="580" y="335" as="targetPoint" />
          </mxGeometry>
        </mxCell>
        <mxCell id="9CGJQdGs0UYNSLArpZwX-64" value="拉取" style="edgeLabel;html=1;align=center;verticalAlign=middle;resizable=0;points=[];fontSize=14;fontColor=#000000;" vertex="1" connectable="0" parent="9CGJQdGs0UYNSLArpZwX-61">
          <mxGeometry x="-0.0408" y="-2" relative="1" as="geometry">
            <mxPoint as="offset" />
          </mxGeometry>
        </mxCell>
        <mxCell id="9CGJQdGs0UYNSLArpZwX-62" value="" style="endArrow=classic;html=1;rounded=0;dashed=1;exitX=0.5;exitY=0;exitDx=0;exitDy=0;entryX=0.5;entryY=1;entryDx=0;entryDy=0;" edge="1" parent="1" source="9CGJQdGs0UYNSLArpZwX-59" target="9CGJQdGs0UYNSLArpZwX-60">
          <mxGeometry width="50" height="50" relative="1" as="geometry">
            <mxPoint x="825" y="580" as="sourcePoint" />
            <mxPoint x="692.5" y="540" as="targetPoint" />
          </mxGeometry>
        </mxCell>
        <mxCell id="9CGJQdGs0UYNSLArpZwX-63" value="上报" style="edgeLabel;html=1;align=center;verticalAlign=middle;resizable=0;points=[];fontSize=14;fontColor=#000000;" vertex="1" connectable="0" parent="9CGJQdGs0UYNSLArpZwX-62">
          <mxGeometry x="-0.12" y="-3" relative="1" as="geometry">
            <mxPoint as="offset" />
          </mxGeometry>
        </mxCell>
        <mxCell id="9CGJQdGs0UYNSLArpZwX-65" value="" style="endArrow=classic;html=1;rounded=0;dashed=1;exitX=1;exitY=0.5;exitDx=0;exitDy=0;entryX=0;entryY=0.5;entryDx=0;entryDy=0;entryPerimeter=0;" edge="1" parent="1" source="9CGJQdGs0UYNSLArpZwX-18" target="9CGJQdGs0UYNSLArpZwX-41">
          <mxGeometry width="50" height="50" relative="1" as="geometry">
            <mxPoint x="360" y="480" as="sourcePoint" />
            <mxPoint x="580" y="335" as="targetPoint" />
          </mxGeometry>
        </mxCell>
        <mxCell id="9CGJQdGs0UYNSLArpZwX-66" value="update" style="edgeLabel;html=1;align=center;verticalAlign=middle;resizable=0;points=[];fontSize=14;fontColor=#000000;" vertex="1" connectable="0" parent="9CGJQdGs0UYNSLArpZwX-65">
          <mxGeometry x="0.0683" y="2" relative="1" as="geometry">
            <mxPoint as="offset" />
          </mxGeometry>
        </mxCell>
        <mxCell id="9CGJQdGs0UYNSLArpZwX-67" value="" style="endArrow=classic;html=1;rounded=0;dashed=1;exitX=1;exitY=0.5;exitDx=0;exitDy=0;entryX=0;entryY=0;entryDx=0;entryDy=30;entryPerimeter=0;" edge="1" parent="1" source="9CGJQdGs0UYNSLArpZwX-19" target="9CGJQdGs0UYNSLArpZwX-40">
          <mxGeometry width="50" height="50" relative="1" as="geometry">
            <mxPoint x="360" y="545" as="sourcePoint" />
            <mxPoint x="580" y="475" as="targetPoint" />
          </mxGeometry>
        </mxCell>
        <mxCell id="9CGJQdGs0UYNSLArpZwX-68" value="update" style="edgeLabel;html=1;align=center;verticalAlign=middle;resizable=0;points=[];fontSize=14;fontColor=#000000;" vertex="1" connectable="0" parent="9CGJQdGs0UYNSLArpZwX-67">
          <mxGeometry x="0.0683" y="2" relative="1" as="geometry">
            <mxPoint x="64" y="-91" as="offset" />
          </mxGeometry>
        </mxCell>
        <mxCell id="9CGJQdGs0UYNSLArpZwX-69" value="&lt;font style=&quot;font-size: 18px;&quot;&gt;查询&lt;/font&gt;" style="text;html=1;strokeColor=none;fillColor=none;align=center;verticalAlign=middle;whiteSpace=wrap;rounded=0;fontColor=#FF3333;" vertex="1" parent="1">
          <mxGeometry x="1020" y="610" width="110" height="60" as="geometry" />
        </mxCell>
        <mxCell id="9CGJQdGs0UYNSLArpZwX-70" value="US" style="rounded=0;whiteSpace=wrap;html=1;dashed=1;fontSize=14;fillColor=#ffcccc;strokeColor=#36393d;" vertex="1" parent="1">
          <mxGeometry x="740" y="150" width="100" height="40" as="geometry" />
        </mxCell>
        <mxCell id="9CGJQdGs0UYNSLArpZwX-71" value="Venus" style="rounded=0;whiteSpace=wrap;html=1;dashed=1;fontSize=14;fillColor=#ffcccc;strokeColor=#36393d;" vertex="1" parent="1">
          <mxGeometry x="740" y="210" width="100" height="40" as="geometry" />
        </mxCell>
        <mxCell id="9CGJQdGs0UYNSLArpZwX-72" value="" style="endArrow=classic;html=1;rounded=0;dashed=1;exitX=1;exitY=0.5;exitDx=0;exitDy=0;entryX=0;entryY=0.5;entryDx=0;entryDy=0;exitPerimeter=0;" edge="1" parent="1" source="9CGJQdGs0UYNSLArpZwX-27" target="9CGJQdGs0UYNSLArpZwX-70">
          <mxGeometry width="50" height="50" relative="1" as="geometry">
            <mxPoint x="360" y="200" as="sourcePoint" />
            <mxPoint x="580" y="205" as="targetPoint" />
          </mxGeometry>
        </mxCell>
        <mxCell id="9CGJQdGs0UYNSLArpZwX-74" value="" style="endArrow=classic;html=1;rounded=0;dashed=1;exitX=1;exitY=0;exitDx=0;exitDy=30;entryX=0;entryY=0.5;entryDx=0;entryDy=0;exitPerimeter=0;" edge="1" parent="1" source="9CGJQdGs0UYNSLArpZwX-27" target="9CGJQdGs0UYNSLArpZwX-71">
          <mxGeometry width="50" height="50" relative="1" as="geometry">
            <mxPoint x="690" y="200" as="sourcePoint" />
            <mxPoint x="740" y="180" as="targetPoint" />
          </mxGeometry>
        </mxCell>
        <mxCell id="9CGJQdGs0UYNSLArpZwX-75" value="" style="curved=1;endArrow=classic;html=1;rounded=0;fontSize=14;fontColor=#000000;" edge="1" parent="1">
          <mxGeometry width="50" height="50" relative="1" as="geometry">
            <mxPoint x="915" y="191" as="sourcePoint" />
            <mxPoint x="915" y="191" as="targetPoint" />
            <Array as="points">
              <mxPoint x="900" y="230" />
              <mxPoint x="880" y="230" />
              <mxPoint x="855" y="211" />
              <mxPoint x="855" y="171" />
              <mxPoint x="895" y="171" />
            </Array>
          </mxGeometry>
        </mxCell>
        <mxCell id="9CGJQdGs0UYNSLArpZwX-76" value="周期&lt;br&gt;调度" style="edgeLabel;html=1;align=center;verticalAlign=middle;resizable=0;points=[];fontSize=14;fontColor=#000000;" vertex="1" connectable="0" parent="9CGJQdGs0UYNSLArpZwX-75">
          <mxGeometry x="-0.1254" y="-1" relative="1" as="geometry">
            <mxPoint x="21" y="-15" as="offset" />
          </mxGeometry>
        </mxCell>
        <mxCell id="9CGJQdGs0UYNSLArpZwX-77" value="" style="curved=1;endArrow=classic;html=1;rounded=0;fontSize=14;fontColor=#000000;exitX=1;exitY=0.5;exitDx=0;exitDy=0;entryX=1;entryY=0.5;entryDx=0;entryDy=0;entryPerimeter=0;dashed=1;" edge="1" parent="1" source="9CGJQdGs0UYNSLArpZwX-59" target="9CGJQdGs0UYNSLArpZwX-3">
          <mxGeometry width="50" height="50" relative="1" as="geometry">
            <mxPoint x="990" y="430" as="sourcePoint" />
            <mxPoint x="1040" y="380" as="targetPoint" />
            <Array as="points">
              <mxPoint x="1040" y="430" />
              <mxPoint x="1080" y="370" />
              <mxPoint x="1080" y="150" />
            </Array>
          </mxGeometry>
        </mxCell>
        <mxCell id="9CGJQdGs0UYNSLArpZwX-78" value="" style="curved=1;endArrow=classic;html=1;rounded=0;fontSize=14;fontColor=#000000;exitX=1;exitY=0.5;exitDx=0;exitDy=0;entryX=1;entryY=0;entryDx=0;entryDy=30;entryPerimeter=0;dashed=1;" edge="1" parent="1" source="9CGJQdGs0UYNSLArpZwX-59" target="9CGJQdGs0UYNSLArpZwX-4">
          <mxGeometry width="50" height="50" relative="1" as="geometry">
            <mxPoint x="990" y="710" as="sourcePoint" />
            <mxPoint x="674.05" y="45.65000000000009" as="targetPoint" />
            <Array as="points">
              <mxPoint x="1040" y="440" />
              <mxPoint x="1060" y="410" />
              <mxPoint x="1070" y="380" />
              <mxPoint x="1090" y="160" />
            </Array>
          </mxGeometry>
        </mxCell>
        <mxCell id="9CGJQdGs0UYNSLArpZwX-79" value="元数据获取" style="edgeLabel;html=1;align=center;verticalAlign=middle;resizable=0;points=[];fontSize=14;fontColor=#000000;" vertex="1" connectable="0" parent="9CGJQdGs0UYNSLArpZwX-78">
          <mxGeometry x="-0.609" y="-2" relative="1" as="geometry">
            <mxPoint as="offset" />
          </mxGeometry>
        </mxCell>
      </root>
    </mxGraphModel>
  </diagram>
</mxfile>
